<?xml version="1.0" encoding="UTF-8"?><svg id="a" xmlns="http://www.w3.org/2000/svg" viewBox="0 0 140.89 121.43"><defs><style>.b{fill:#b8e1f8;}.b,.c,.d{fill-rule:evenodd;}.e{stroke:#fff;}.e,.f{fill:none;stroke-linejoin:round;stroke-width:8px;}.f{stroke:#010101;}.c{fill:#ed1c24;}.d{fill:#4c7cbf;}</style></defs><path class="b" d="M120.85,48.71c5.06,7.55,11.45,9.86,19.76,4.75,.27,2.84,.34,5.74,.2,8.68-1.64,32.49-29.3,57.51-61.79,55.87-32.48-1.65-57.5-29.31-55.86-61.79C24.79,23.73,53.41-1.56,85.89,.08c-2.88,9.02-.44,17.02,6.89,19.74-6.64,21.34,8.19,35.31,28.07,28.89h0Z"/><path class="c" d="M66.23,118.05c-32.48-1.65-57.5-29.31-55.86-61.79C11.99,23.77,40.61-1.52,73.1,.11c-2.88,9.02-.44,17.02,6.89,19.74"/><path class="d" d="M115.47,52.05c5.06,7.55,11.45,9.86,19.76,4.75,.27,2.84,.34,5.74,.2,8.68-1.64,32.49-29.3,57.51-61.79,55.87-32.48-1.65-57.5-29.31-55.86-61.79C19.4,27.07,48.03,1.78,80.51,3.42c-2.88,9.02-.44,17.02,6.89,19.74-6.64,21.34,8.19,35.31,28.07,28.89h0Z"/><polyline class="f" points="3.49 77.37 41.75 77.37 57.11 22.15 71.19 105.15 84.64 57.7 96.66 76.13 126.9 76.13"/><polyline class="e" points="0 71.76 38.25 71.76 53.61 16.55 67.69 99.54 81.14 52.1 93.17 70.53 123.41 70.53"/></svg>